<svg width="393" height="276" viewBox="0 0 393 276" fill="none" xmlns="http://www.w3.org/2000/svg">
    <g clip-path="url(#clip0_57_281)">
        <path d="M193.16 157.187C193.16 157.02 193.136 156.854 193.089 156.701C193.065 156.611 193.036 156.53 192.994 156.449V177.73L193.151 177.892H193.16V157.187Z"
              fill="white"/>
        <path d="M193.16 177.892H193.151L193.16 177.901V177.892Z" fill="white"/>
        <path d="M192.999 220.12C193.113 218.692 193.165 217.255 193.165 215.813V180.238C193.108 180.285 193.056 180.333 192.999 180.38V220.12Z"
              fill="white"/>
        <path d="M192.998 220.12V220.462H192.97C192.979 220.348 192.994 220.239 192.998 220.12Z" fill="white"/>
        <path d="M200.145 177.735V156.449C200.102 156.54 200.069 156.625 200.045 156.72C199.998 156.868 199.979 157.03 199.979 157.187V177.892H199.993L200.145 177.735Z"
              fill="white"/>
        <path d="M199.993 177.892H199.979V177.906L199.993 177.892Z" fill="white"/>
        <path d="M199.979 215.808C199.979 217.25 200.031 218.692 200.145 220.115V180.371C200.088 180.323 200.036 180.276 199.979 180.228V215.803V215.808Z"
              fill="white"/>
        <path d="M200.173 220.462H200.145V220.12C200.149 220.239 200.164 220.348 200.173 220.462Z" fill="white"/>
        <path d="M193.094 156.701C193.07 156.611 193.041 156.53 192.999 156.449V160.727C193.051 160.508 193.089 160.294 193.089 160.113C193.089 159.338 193.094 158.186 193.094 156.706V156.701Z"
              fill="white"/>
        <path d="M73.3284 209.318V220.091C76.9158 221.842 80.6317 223.374 84.5427 224.555C97.7696 228.557 110.973 230.807 124.247 229.466C125.384 229.351 127.82 230.351 130.989 232.03C130.994 232.03 130.994 232.035 130.999 232.035C128.705 232.492 126.417 232.825 124.133 233.054C110.854 234.405 97.6506 232.149 84.419 228.147C80.5556 226.977 76.873 225.473 73.3236 223.75C71.4395 222.832 69.5935 221.856 67.7855 220.829C62.9324 218.073 58.2745 214.98 53.6308 211.825C53.3787 211.664 53.1312 211.497 52.8886 211.33C43.2872 204.811 33.1863 199.743 21.3296 198.901C14.4355 198.411 8.00285 199.424 2.13164 203.255C0.218977 204.502 -0.775417 205.834 1.27047 207.809C13.9407 220.072 25.9971 233.039 39.4 244.427C58.6456 260.773 80.803 271.779 106.234 274.963C122.648 277.018 138.311 275.372 153.089 269.628C153.779 269.362 154.469 269.086 155.154 268.791C155.887 268.548 156.61 268.286 157.333 268.015C177.511 260.392 191.205 241.709 192.955 220.462C192.97 220.353 192.979 220.239 192.984 220.124V180.385C168.367 201.661 131.37 200.742 109.517 177.996L83.2533 150.663C95.3288 139.608 110.625 134.103 125.708 134.103C140.79 134.103 156.767 140.027 168.1 151.829L192.989 177.735V156.454C193.032 156.535 193.06 156.625 193.084 156.711C193.122 137.334 193.16 62.2524 193.16 52.0737V51.2837C193.155 40.258 193.108 29.2323 192.975 18.2113C192.837 7.43305 187.641 0.19519 180.799 0.00960353C174.49 -0.156948 169.076 7.20939 168.857 17.8687C168.452 37.5313 168.619 57.2177 168.562 76.8994C168.557 77.9939 168.562 93.4784 168.567 110.728C166.216 109.187 163.733 107.816 161.14 106.65C161.149 84.3799 161.159 63.3659 161.159 58.3217V57.5271C161.159 46.5061 161.111 35.4756 160.973 24.4594C160.84 13.6764 155.644 6.44325 148.802 6.25767C142.498 6.08636 137.074 13.4527 136.86 24.1073C136.461 43.7746 136.627 63.4658 136.56 83.1427C136.56 83.8993 136.56 91.5607 136.565 101.934H129.362C129.371 89.2337 129.376 79.2311 129.376 75.9572V75.1672C129.371 64.1368 129.329 53.111 129.191 42.0948C129.053 31.3118 123.857 24.0787 117.015 23.8931C110.706 23.7218 105.292 31.0882 105.073 41.7475C104.668 61.4148 104.835 81.1013 104.778 100.783V106.703C102.242 107.854 99.8012 109.187 97.4888 110.705C97.4936 106.641 97.4936 103.633 97.4936 102.101V101.311C97.4889 90.2901 97.4508 79.2644 97.3128 68.2435C97.1701 57.4652 91.984 50.2321 85.1422 50.0513C78.8285 49.8799 73.414 57.2463 73.1952 67.9008C72.7907 87.5635 72.9573 107.25 72.9002 126.932M169.542 257.775C169.513 257.798 169.485 257.808 169.461 257.832C169.276 257.622 169.095 257.408 168.914 257.199C169.356 257.551 169.585 257.751 169.547 257.77L169.542 257.775Z"
              fill="white"/>
        <path d="M169.547 257.765C169.518 257.789 169.49 257.798 169.466 257.822C169.28 257.608 169.1 257.403 168.914 257.189C169.357 257.546 169.585 257.746 169.547 257.765Z"
              fill="white"/>
        <path d="M319.819 211.554V219.991C316.223 221.78 312.492 223.341 308.567 224.55C295.359 228.623 282.17 230.955 268.886 229.68C267.749 229.575 265.318 230.584 262.154 232.287C264.447 232.73 266.736 233.049 269.024 233.268C282.308 234.543 295.497 232.216 308.705 228.138C314.61 226.315 320.072 223.717 325.301 220.719C330.139 217.945 334.783 214.828 339.403 211.649C339.65 211.483 339.902 211.311 340.145 211.145C349.704 204.573 359.781 199.453 371.628 198.539C378.522 198.011 384.959 198.991 390.85 202.784C392.772 204.026 393.771 205.349 391.735 207.338C379.136 219.668 367.151 232.701 353.81 244.165C334.659 260.62 312.559 271.751 287.152 275.077C270.752 277.223 255.079 275.662 240.268 270.004C237.827 269.072 235.405 268.029 233.007 266.868C232.974 266.854 232.941 266.835 232.903 266.821C231.466 266.121 230.034 265.379 228.611 264.594C227.493 263.985 226.389 263.347 225.285 262.69C224.434 262.143 223.611 261.567 222.797 260.968C209.884 251.526 201.529 236.751 200.183 220.467C200.173 220.358 200.164 220.243 200.154 220.129V180.385C224.776 201.666 261.773 200.747 283.631 178.001L309.89 150.668C285.296 128.14 247.31 128.659 225.047 151.833L200.15 177.744V156.454C200.111 156.544 200.078 156.635 200.054 156.725C200.016 137.381 199.988 62.2524 199.988 52.0737V51.2837C199.988 40.258 200.035 29.2323 200.173 18.2113C200.307 7.43305 205.502 0.19519 212.339 0.00960353C218.658 -0.156948 224.072 7.20939 224.291 17.8687C224.686 37.5313 224.519 57.2177 224.586 76.8994C224.586 77.9939 224.581 93.4784 224.572 110.728C226.813 109.258 229.177 107.945 231.642 106.817C231.637 94.0447 231.637 84.023 231.637 83.1427C231.694 63.4658 231.532 43.7699 231.932 24.1073C232.151 13.4527 237.57 6.08636 243.874 6.25767C250.716 6.44325 255.917 13.6716 256.05 24.4594C256.183 35.4756 256.226 46.5061 256.235 57.5271V58.3217C256.235 63.009 256.226 81.4819 256.216 101.934H263.934V100.783C264 81.1013 263.834 61.4101 264.233 41.7475C264.447 31.0882 269.867 23.7218 276.176 23.8931C283.017 24.0787 288.218 31.307 288.346 42.0948C288.484 53.111 288.532 64.1368 288.532 75.1672V75.9572C288.532 79.6356 288.532 91.8129 288.517 106.779C291.025 107.916 293.423 109.244 295.707 110.743C295.707 96.4621 295.692 82.1719 295.983 67.9008C296.201 57.2463 301.621 49.8799 307.93 50.0513C314.771 50.2368 319.972 57.4652 320.1 68.2435C320.238 79.2644 320.281 90.2901 320.281 101.311V102.101"
              fill="white"/>
        <path d="M232.893 266.816C230.224 265.631 227.679 264.246 225.276 262.686C226.38 263.342 227.484 263.98 228.602 264.589C230.024 265.374 231.456 266.117 232.893 266.816Z"
              fill="white"/>
        <path d="M200.145 160.703V156.449C200.102 156.54 200.069 156.625 200.045 156.72C200.05 158.186 200.054 159.338 200.054 160.109C200.054 160.285 200.083 160.489 200.145 160.699V160.703Z"
              fill="white"/>
        <path d="M225.276 262.686C224.81 262.405 224.343 262.119 223.882 261.829C223.573 261.634 223.301 261.396 222.783 260.958C223.596 261.563 224.424 262.134 225.271 262.681L225.276 262.686Z"
              fill="white"/>
        <path d="M291.562 152.852C286.695 156.207 281.024 158.51 275.604 160.799C259.071 167.375 241.995 172.505 224.605 176.25C219.314 177.387 213.881 178.344 208.499 178.981C206.03 179.224 203.527 179.405 201.058 179.286C202.033 179.076 203.004 178.9 203.96 178.705C204.993 178.444 207.267 177.863 208.242 177.611C228.444 171.848 248.86 165.595 269.058 159.885C275.623 157.896 285.253 155.383 291.562 152.847V152.852Z"
              fill="white"/>
        <path d="M101.419 152.852C107.695 155.378 117.353 157.905 123.924 159.89C144.111 165.6 164.542 171.857 184.739 177.615C185.79 177.882 187.984 178.443 189.021 178.71C189.977 178.9 190.943 179.081 191.923 179.29C189.454 179.409 186.951 179.229 184.482 178.986C179.096 178.348 173.672 177.387 168.376 176.254C150.986 172.505 133.91 167.375 117.377 160.803C111.958 158.514 106.281 156.206 101.419 152.856V152.852Z"
              fill="white"/>
    </g>
    <defs>
        <clipPath id="clip0_57_281">
            <path d="M0 0H393V156C393 222.274 339.274 276 273 276H0V0Z" fill="white"/>
        </clipPath>
    </defs>
</svg>
